<svg width="216" height="81" viewBox="0 0 216 81" fill="none" xmlns="http://www.w3.org/2000/svg">
<path d="M9.99462 18.791C4.14538 19.4929 -1.95111 26.1173 0.594662 34.6742C4.32434 47.1864 20.4953 51.3934 32.7994 50.5134V50.4993C26.6066 50.8495 19.3991 45.0649 17.5737 41.4913C14.2423 34.9663 16.4643 29.4575 19.6678 23.4009C19.7652 23.2163 18.978 22.7674 19.0789 22.585C17.3132 20.3294 14.87 18.7058 11.4044 18.7058C10.9521 18.7058 10.4826 18.7335 9.99462 18.791Z" fill="url(#paint0_linear)"/>
<path d="M24.7072 0.839928C20.1928 1.76169 17.8259 10.2328 18.4995 15.9469C19.9587 13.6614 22.0365 11.4032 26.1103 7.80033C29.7921 4.53944 27.7154 0.789985 25.2053 0.790527C25.0406 0.790527 24.8738 0.806272 24.7072 0.839928Z" fill="url(#paint1_linear)"/>
<path d="M54.4968 5.70819C54.7664 9.24811 52.2283 11.0015 48.442 13.3081C43.6294 16.2384 36.528 17.9462 29.7044 22.5848C25.2155 25.6377 23.6579 29.8736 23.5778 33.97C23.6742 34.2565 23.146 35.5567 23.2459 35.8363C25.3619 41.7387 28.3022 46.5749 32.4419 47.6269C30.308 46 28.9309 43.3336 28.9309 40.3148C28.9309 24.7535 50.4979 27.8743 57.3938 19.9764C61.4748 15.3052 60.5264 7.11797 54.9342 3.43691C54.9113 3.42117 54.3952 3.10577 54.3718 3.09058C54.6874 3.87987 54.4406 4.97372 54.4968 5.70819Z" fill="url(#paint2_linear)"/>
<path d="M46.3 1.75465C36.6666 2.86803 26.2495 12.5682 21.3491 19.1622C20.5374 20.2609 19.7675 21.4329 19.0791 22.6793C19.0981 22.7031 18.9338 22.8997 18.9522 22.9236C20.9397 25.5075 22.0614 28.7304 22.7431 31.3871C23.0271 32.4924 23.0082 35.3863 23.438 36.3629C23.4462 36.3824 23.5559 35.9481 23.6644 35.515C23.7735 35.0812 23.8821 34.6469 23.8887 34.667C24.9427 30.2678 27.6322 26.2441 32.1211 23.1917C38.9446 18.5526 44.5114 17.4539 49.324 14.5235C53.8955 11.7387 56.7003 8.07829 54.8648 3.4847C53.096 2.34038 50.8709 1.64282 48.1977 1.64282C47.5885 1.64282 46.9562 1.67919 46.3 1.75465Z" fill="url(#paint3_linear)"/>
<path d="M42.033 30.1174V30.1316C42.271 30.3586 42.6341 30.5203 43.122 30.5289C48.7408 30.6277 53.0022 33.2655 55.4338 38.4155C58.6383 45.2011 58.7413 51.1577 55.5485 57.2116C55.4731 57.356 55.834 57.9021 55.7545 58.0449C57.7501 60.5952 60.6126 62.3383 64.8388 61.84C70.6875 61.1375 76.7835 54.5131 74.2388 45.9562C70.8226 34.4977 56.9756 30.0046 45.2171 30.0051C44.1356 30.0051 43.0694 30.0431 42.033 30.1174Z" fill="url(#paint4_linear)"/>
<path d="M48.7219 72.8291C44.7989 76.3034 47.4146 80.3329 50.125 79.7895C54.6394 78.8672 57.0062 70.3966 56.3332 64.6831C54.8734 66.968 52.7957 69.2263 48.7219 72.8291Z" fill="url(#paint5_linear)"/>
<path d="M50.8236 45.2044C50.7435 45.4302 50.6635 45.6561 50.6558 45.6333C49.6024 50.032 47.2005 54.48 42.711 57.5314C35.888 62.1711 30.3213 63.2704 25.5081 66.2007C21.1436 68.8596 17.9355 72.1704 19.2938 76.4762C19.3581 76.6793 19.7685 77.1071 19.9684 77.2395C22.1399 78.6438 24.9997 79.3756 28.5322 78.969C38.1661 77.8562 48.5832 68.1555 53.4841 61.5621C54.2953 60.4628 55.0657 59.2908 55.754 58.0444C55.7015 57.9771 56.1206 57.5282 56.0696 57.4598C54.1658 54.8796 53.0318 51.6806 52.3613 49.0684C52.0783 47.9686 51.3294 45.7934 50.9913 44.775C50.9908 44.7745 50.9903 44.7739 50.9898 44.7739C50.976 44.7739 50.9001 44.9895 50.8236 45.2044Z" fill="url(#paint6_linear)"/>
<path d="M42.3897 33.0039C44.5241 34.6308 45.9007 37.2967 45.9007 40.3161C45.9007 55.8774 24.3348 52.7566 17.4384 60.6544C13.3406 65.3447 14.3139 73.5818 19.9683 77.2406C20.0208 76.9579 20.052 77.0952 20.0106 76.8172C19.3989 72.7513 21.8737 69.3439 26.3901 67.1871C31.6417 64.6797 35.6911 64.0451 42.5146 59.4065C47.0041 56.3545 49.8899 50.4576 50.9433 46.0583C50.8744 45.8542 51.6566 45.1312 51.5862 44.9303C49.5131 39.0403 45.8084 32.9947 42.61 32.9941C42.5361 32.9941 42.4632 32.9974 42.3897 33.0039Z" fill="url(#paint7_linear)"/>
<path d="M31.5364 40.3146C31.5364 43.7715 34.1689 46.5748 37.4162 46.5748C40.663 46.5748 43.296 43.7715 43.296 40.3146C43.296 36.8572 40.663 34.054 37.4162 34.054C34.1689 34.054 31.5364 36.8572 31.5364 40.3146Z" fill="url(#paint8_linear)"/>
<path d="M17.8262 42.967C20.8675 48.3309 26.6066 50.8492 32.7994 50.4991C33.9787 50.4442 35.1729 50.2765 36.368 50.0078C37.4341 49.7705 38.1526 49.3553 37.4096 49.3553C35.5522 49.3553 33.8319 48.7255 32.442 47.6268C28.5875 45.2084 24.9678 39.3044 22.9039 31.2741C22.6281 30.2036 22.2814 29.0142 21.8409 27.808C21.1765 25.9949 20.2939 24.1421 19.0789 22.5847C15.6648 28.7384 14.1098 36.4165 17.8262 42.967Z" fill="url(#paint9_linear)"/>
<path d="M42.4145 29.8931C41.2362 29.9474 40.0416 30.1146 38.8465 30.3838C37.7809 30.6215 37.0619 31.0363 37.8047 31.0363C39.6622 31.0363 41.3825 31.666 42.7719 32.7648C46.6265 35.1831 50.2465 41.0877 52.3111 49.1175C52.5864 50.188 52.9326 51.3768 53.3741 52.5841C54.0374 54.3962 54.9211 56.2494 56.1361 57.8064C59.5496 51.6531 61.1042 43.9751 57.3883 37.424C54.5331 32.3886 49.2993 29.8611 43.5449 29.8611C43.1701 29.8611 42.7934 29.8714 42.4145 29.8931Z" fill="url(#paint10_linear)"/>
<path d="M104.808 61.364C102.381 61.364 100.197 60.948 98.256 60.116C96.3147 59.2493 94.7893 58.036 93.68 56.476C92.5707 54.916 92.016 53.096 92.016 51.016H98.36C98.4987 52.576 99.1053 53.8587 100.18 54.864C101.289 55.8693 102.832 56.372 104.808 56.372C106.853 56.372 108.448 55.8867 109.592 54.916C110.736 53.9107 111.308 52.628 111.308 51.068C111.308 49.8547 110.944 48.8667 110.216 48.104C109.523 47.3413 108.639 46.752 107.564 46.336C106.524 45.92 105.068 45.4693 103.196 44.984C100.839 44.36 98.9147 43.736 97.424 43.112C95.968 42.4533 94.72 41.448 93.68 40.096C92.64 38.744 92.12 36.9413 92.12 34.688C92.12 32.608 92.64 30.788 93.68 29.228C94.72 27.668 96.176 26.472 98.048 25.64C99.92 24.808 102.087 24.392 104.548 24.392C108.049 24.392 110.909 25.276 113.128 27.044C115.381 28.7773 116.629 31.1693 116.872 34.22H110.32C110.216 32.9027 109.592 31.776 108.448 30.84C107.304 29.904 105.796 29.436 103.924 29.436C102.225 29.436 100.839 29.8693 99.764 30.736C98.6893 31.6027 98.152 32.8507 98.152 34.48C98.152 35.5893 98.4813 36.508 99.14 37.236C99.8333 37.9293 100.7 38.484 101.74 38.9C102.78 39.316 104.201 39.7667 106.004 40.252C108.396 40.9107 110.337 41.5693 111.828 42.228C113.353 42.8867 114.636 43.9093 115.676 45.296C116.751 46.648 117.288 48.468 117.288 50.756C117.288 52.5933 116.785 54.3267 115.78 55.956C114.809 57.5853 113.371 58.9027 111.464 59.908C109.592 60.8787 107.373 61.364 104.808 61.364ZM150.543 45.972C150.543 47.0467 150.473 48.0173 150.335 48.884H128.443C128.616 51.172 129.465 53.0093 130.991 54.396C132.516 55.7827 134.388 56.476 136.607 56.476C139.796 56.476 142.049 55.1413 143.367 52.472H149.763C148.896 55.1067 147.319 57.2733 145.031 58.972C142.777 60.636 139.969 61.468 136.607 61.468C133.868 61.468 131.407 60.8613 129.223 59.648C127.073 58.4 125.375 56.6667 124.127 54.448C122.913 52.1947 122.307 49.5947 122.307 46.648C122.307 43.7013 122.896 41.1187 124.075 38.9C125.288 36.6467 126.969 34.9133 129.119 33.7C131.303 32.4867 133.799 31.88 136.607 31.88C139.311 31.88 141.72 32.4693 143.835 33.648C145.949 34.8267 147.596 36.4907 148.775 38.64C149.953 40.7547 150.543 43.1987 150.543 45.972ZM144.355 44.1C144.32 41.916 143.54 40.1653 142.015 38.848C140.489 37.5307 138.6 36.872 136.347 36.872C134.301 36.872 132.551 37.5307 131.095 38.848C129.639 40.1307 128.772 41.8813 128.495 44.1H144.355ZM182.637 45.972C182.637 47.0467 182.567 48.0173 182.429 48.884H160.537C160.71 51.172 161.559 53.0093 163.085 54.396C164.61 55.7827 166.482 56.476 168.701 56.476C171.89 56.476 174.143 55.1413 175.461 52.472H181.857C180.99 55.1067 179.413 57.2733 177.125 58.972C174.871 60.636 172.063 61.468 168.701 61.468C165.962 61.468 163.501 60.8613 161.317 59.648C159.167 58.4 157.469 56.6667 156.221 54.448C155.007 52.1947 154.401 49.5947 154.401 46.648C154.401 43.7013 154.99 41.1187 156.169 38.9C157.382 36.6467 159.063 34.9133 161.213 33.7C163.397 32.4867 165.893 31.88 168.701 31.88C171.405 31.88 173.814 32.4693 175.929 33.648C178.043 34.8267 179.69 36.4907 180.869 38.64C182.047 40.7547 182.637 43.1987 182.637 45.972ZM176.449 44.1C176.414 41.916 175.634 40.1653 174.109 38.848C172.583 37.5307 170.694 36.872 168.441 36.872C166.395 36.872 164.645 37.5307 163.189 38.848C161.733 40.1307 160.866 41.8813 160.589 44.1H176.449ZM199.806 46.7L213.014 61H205.006L194.398 48.676V61H188.47V22.52H194.398V44.88L204.798 32.348H213.014L199.806 46.7Z" fill="#242F3E"/>
<defs>
<linearGradient id="paint0_linear" x1="2.52303" y1="18.7058" x2="30.781" y2="18.7058" gradientUnits="userSpaceOnUse">
<stop stop-color="#FF453A"/>
<stop offset="0.510417" stop-color="#F33A31"/>
<stop offset="1" stop-color="#E52D27"/>
</linearGradient>
<linearGradient id="paint1_linear" x1="19.134" y1="0.790527" x2="27.5081" y2="0.790527" gradientUnits="userSpaceOnUse">
<stop stop-color="#FF453A"/>
<stop offset="0.510417" stop-color="#F33A31"/>
<stop offset="1" stop-color="#E52D27"/>
</linearGradient>
<linearGradient id="paint2_linear" x1="26.0541" y1="3.09058" x2="57.6471" y2="3.09058" gradientUnits="userSpaceOnUse">
<stop stop-color="#FF453A"/>
<stop offset="0.510417" stop-color="#F33A31"/>
<stop offset="1" stop-color="#E52D27"/>
</linearGradient>
<linearGradient id="paint3_linear" x1="21.7572" y1="1.64282" x2="53.1888" y2="1.64282" gradientUnits="userSpaceOnUse">
<stop stop-color="#FF453A"/>
<stop offset="0.510417" stop-color="#F33A31"/>
<stop offset="1" stop-color="#E52D27"/>
</linearGradient>
<linearGradient id="paint4_linear" x1="44.556" y1="30.0051" x2="72.8146" y2="30.0051" gradientUnits="userSpaceOnUse">
<stop stop-color="#FF453A"/>
<stop offset="0.510417" stop-color="#F33A31"/>
<stop offset="1" stop-color="#E52D27"/>
</linearGradient>
<linearGradient id="paint5_linear" x1="47.4739" y1="64.6831" x2="55.848" y2="64.6831" gradientUnits="userSpaceOnUse">
<stop stop-color="#FF453A"/>
<stop offset="0.510417" stop-color="#F33A31"/>
<stop offset="1" stop-color="#E52D27"/>
</linearGradient>
<linearGradient id="paint6_linear" x1="21.832" y1="44.7739" x2="53.7911" y2="44.7739" gradientUnits="userSpaceOnUse">
<stop stop-color="#FF453A"/>
<stop offset="0.510417" stop-color="#F33A31"/>
<stop offset="1" stop-color="#E52D27"/>
</linearGradient>
<linearGradient id="paint7_linear" x1="17.7488" y1="32.9941" x2="49.3346" y2="32.9941" gradientUnits="userSpaceOnUse">
<stop stop-color="#FF453A"/>
<stop offset="0.510417" stop-color="#F33A31"/>
<stop offset="1" stop-color="#E52D27"/>
</linearGradient>
<linearGradient id="paint8_linear" x1="32.441" y1="34.054" x2="42.5724" y2="34.054" gradientUnits="userSpaceOnUse">
<stop stop-color="#FF453A"/>
<stop offset="0.510417" stop-color="#F33A31"/>
<stop offset="1" stop-color="#E52D27"/>
</linearGradient>
<linearGradient id="paint9_linear" x1="17.3731" y1="22.5847" x2="36.3584" y2="22.5847" gradientUnits="userSpaceOnUse">
<stop stop-color="#FF453A"/>
<stop offset="0.510417" stop-color="#F33A31"/>
<stop offset="1" stop-color="#E52D27"/>
</linearGradient>
<linearGradient id="paint10_linear" x1="39.1951" y1="29.8611" x2="58.1802" y2="29.8611" gradientUnits="userSpaceOnUse">
<stop stop-color="#FF453A"/>
<stop offset="0.510417" stop-color="#F33A31"/>
<stop offset="1" stop-color="#E52D27"/>
</linearGradient>
</defs>
</svg>
